<svg width="128" height="128" viewBox="0 0 24 24" fill="none" xmlns="http://www.w3.org/2000/svg">
  <!-- Rounded square outline -->
  <rect x="2" y="2" width="20" height="20" rx="4" stroke="currentColor" stroke-width="1.5" fill="none"/>

  <!-- Main vine stem - curved growth shape -->
  <path
    d="M8 17 C8 13, 8 10, 10.5 7.5 C12 6, 13.5 6, 16 7"
    stroke="currentColor"
    stroke-width="1.5"
    stroke-linecap="round"
    stroke-linejoin="round"
    fill="none"
  />
  <!-- Tendril curl -->
  <path
    d="M16 7 C17 5.5, 18.5 5.5, 18.5 7"
    stroke="currentColor"
    stroke-width="1.5"
    stroke-linecap="round"
    stroke-linejoin="round"
    fill="none"
  />
  <!-- Primary leaf -->
  <path
    d="M12.5 9 C14 6.5, 17 7.5, 16.5 10.5 C16 12, 13.5 11.5, 12.5 9"
    fill="currentColor"
  />
  <!-- Secondary leaf -->
  <path
    d="M9.5 13 C8 11.5, 8.5 10, 11 10.5 C11.5 11.5, 11 13, 9.5 13"
    fill="currentColor"
    opacity="0.8"
  />
  <!-- Growth bud -->
  <circle
    cx="8"
    cy="17"
    r="1.5"
    fill="currentColor"
  />
</svg>
